<svg width="72" height="72" viewBox="0 0 72 72" fill="none" xmlns="http://www.w3.org/2000/svg">
<g filter="url(#filter0_d_1123_555)">
<rect x="20" y="14" width="32" height="32" rx="6" fill="#E4E4E4" shape-rendering="crispEdges"/>
<rect x="20.25" y="14.25" width="31.5" height="31.5" rx="5.75" stroke="#D1D1D1" stroke-width="0.5" shape-rendering="crispEdges"/>
<path d="M40 22H32C29.7909 22 28 23.7909 28 26V34C28 36.2091 29.7909 38 32 38H40C42.2091 38 44 36.2091 44 34V26C44 23.7909 42.2091 22 40 22Z" stroke="#1F1F1F" stroke-width="1.75" stroke-linecap="round" stroke-linejoin="round"/>
<path d="M39.1994 29.4958C39.2981 30.1615 39.1844 30.8415 38.8744 31.439C38.5644 32.0364 38.0739 32.5209 37.4727 32.8235C36.8715 33.1261 36.1901 33.2314 35.5256 33.1245C34.8611 33.0176 34.2472 32.7038 33.7712 32.2279C33.2953 31.7519 32.9816 31.1381 32.8746 30.4735C32.7677 29.809 32.873 29.1277 33.1756 28.5265C33.4782 27.9252 33.9627 27.4347 34.5602 27.1247C35.1576 26.8147 35.8376 26.701 36.5034 26.7998C37.1825 26.9005 37.8113 27.2169 38.2967 27.7024C38.7822 28.1879 39.0987 28.8166 39.1994 29.4958Z" stroke="#1F1F1F" stroke-width="1.75" stroke-linecap="round" stroke-linejoin="round"/>
<path d="M40.4004 25.6001H40.4084" stroke="#1F1F1F" stroke-width="1.75" stroke-linecap="round" stroke-linejoin="round"/>
</g>
<defs>
<filter id="filter0_d_1123_555" x="0" y="0" width="72" height="72" filterUnits="userSpaceOnUse" color-interpolation-filters="sRGB">
<feFlood flood-opacity="0" result="BackgroundImageFix"/>
<feColorMatrix in="SourceAlpha" type="matrix" values="0 0 0 0 0 0 0 0 0 0 0 0 0 0 0 0 0 0 127 0" result="hardAlpha"/>
<feOffset dy="6"/>
<feGaussianBlur stdDeviation="10"/>
<feComposite in2="hardAlpha" operator="out"/>
<feColorMatrix type="matrix" values="0 0 0 0 0 0 0 0 0 0 0 0 0 0 0 0 0 0 0.1 0"/>
<feBlend mode="normal" in2="BackgroundImageFix" result="effect1_dropShadow_1123_555"/>
<feBlend mode="normal" in="SourceGraphic" in2="effect1_dropShadow_1123_555" result="shape"/>
</filter>
</defs>
</svg>
