<svg preserveAspectRatio="none" overflow="visible" style="display: block;" width="13.5001" height="15.5" viewBox="0 0 13.5001 15.5" fill="none" xmlns="http://www.w3.org/2000/svg">
<g id="Group 476">
<path id="Vector" d="M10.7501 4.95074C10.7501 3.83664 10.3286 2.76816 9.57848 1.98037C8.82834 1.19258 7.81092 0.75 6.75005 0.75C5.68919 0.75 4.67177 1.19258 3.92163 1.98037C3.17148 2.76816 2.75005 3.83664 2.75005 4.95074C2.75005 9.85161 0.750054 11.2519 0.750054 11.2519H12.7501C12.7501 11.2519 10.7501 9.85161 10.7501 4.95074Z" stroke="#030303" stroke-width="1.5" stroke-linecap="round" stroke-linejoin="round"/>
<path id="Vector_2" d="M7.90242 14.0524C7.78522 14.2645 7.61699 14.4407 7.41457 14.5631C7.21216 14.6856 6.98268 14.75 6.74909 14.75C6.5155 14.75 6.28602 14.6856 6.08361 14.5631C5.8812 14.4407 5.71296 14.2645 5.59576 14.0524" stroke="#030303" stroke-width="1.5" stroke-linecap="round" stroke-linejoin="round"/>
</g>
</svg>
